<?xml version="1.0" encoding="UTF-8" standalone="no"?>
<svg
   xmlns:dc="http://purl.org/dc/elements/1.1/"
   xmlns:cc="http://creativecommons.org/ns#"
   xmlns:rdf="http://www.w3.org/1999/02/22-rdf-syntax-ns#"
   xmlns:svg="http://www.w3.org/2000/svg"
   xmlns="http://www.w3.org/2000/svg"
   xmlns:sodipodi="http://sodipodi.sourceforge.net/DTD/sodipodi-0.dtd"
   xmlns:inkscape="http://www.inkscape.org/namespaces/inkscape"
   version="1.1"
   id="Capa_1"
   x="0px"
   y="0px"
   viewBox="0 0 503.9 503.9"
   style="enable-background:new 0 0 503.9 503.9;"
   xml:space="preserve"
   sodipodi:docname="logo.svg"
   inkscape:version="1.0beta2 (2b71d25, 2019-12-03)"><metadata
   id="metadata162"><rdf:RDF><cc:Work
       rdf:about=""><dc:format>image/svg+xml</dc:format><dc:type
         rdf:resource="http://purl.org/dc/dcmitype/StillImage" /></cc:Work></rdf:RDF></metadata><defs
   id="defs160">
	
	
	
	
	
	
	
	
</defs><sodipodi:namedview
   pagecolor="#ffffff"
   bordercolor="#666666"
   inkscape:document-rotation="0"
   borderopacity="1"
   objecttolerance="10"
   gridtolerance="10"
   guidetolerance="10"
   inkscape:pageopacity="0"
   inkscape:pageshadow="2"
   inkscape:window-width="1440"
   inkscape:window-height="855"
   id="namedview158"
   showgrid="false"
   inkscape:snap-bbox="true"
   inkscape:bbox-nodes="true"
   inkscape:zoom="0.80726617"
   inkscape:cx="333.61791"
   inkscape:cy="259.11132"
   inkscape:window-x="0"
   inkscape:window-y="23"
   inkscape:window-maximized="1"
   inkscape:current-layer="g97" />

<g
   id="g97"
   style="fill:#5555ff">
	<path
   inkscape:connector-curvature="0"
   style="fill:#5555ff;stroke-width:1.09853"
   d="M 418.25,99.747526 V 258.8 c -15,-7.60266 -31.2,-11.58501 -47.5,-11.58501 -3,0 -5.9,0.12068 -8.9,0.36204 V 99.747526 Z"
   id="path89" />
	<path
   inkscape:connector-curvature="0"
   style="fill:#5555ff;stroke-width:1.06842"
   d="m 302.95,256.04155 v 0 c -32.2,24.65702 -52.3,65.18129 -54.2,109.35845 h -2.1 V 175.56377 h 56.3 z"
   id="path91" />
	<rect
   x="131.25"
   y="249.66379"
   style="fill:#5555ff;stroke-width:1.12039"
   width="56.299999"
   height="115.73622"
   id="rect93" />
	<rect
   x="15.85"
   y="220.29253"
   style="fill:#5555ff;stroke-width:1.1337"
   width="56.299999"
   height="145.10747"
   id="rect95" />
</g>

<g
   id="g107"
   style="fill:#5555ff"
   transform="translate(0,2)">
	
		<rect
   x="91.718002"
   y="149.17999"
   transform="matrix(-0.3758,0.9267,-0.9267,-0.3758,304.0435,149.365)"
   style="fill:#5555ff"
   width="20"
   height="55.799999"
   id="rect101" />
	
		<rect
   x="181.724"
   y="145.293"
   transform="matrix(-0.7644,0.6447,-0.6447,-0.7644,486.5684,132.794)"
   style="fill:#5555ff"
   width="74.598"
   height="19.999001"
   id="rect103" />
	
		<rect
   x="296.68201"
   y="67.517998"
   transform="matrix(-0.8159,0.5782,-0.5782,-0.8159,648.1205,-51.3319)"
   style="fill:#5555ff"
   width="71.099998"
   height="20"
   id="rect105" />
</g>
<g
   id="g233"
   style="fill:#ffa121;fill-opacity:1"
   transform="translate(0,2)"><path
     style="fill:#ffa121;fill-opacity:1"
     d="m 44.05,114.9 c -23.1,0 -41.8,18.7 -41.8,41.8 0,23.1 18.7,41.8 41.8,41.8 23.1,0 41.8,-18.7 41.8,-41.8 v 0 c 0,-23.1 -18.7,-41.8 -41.8,-41.8 z"
     id="path109"
     inkscape:connector-curvature="0" /><circle
     style="fill:#ffa121;fill-opacity:1"
     cx="274.75"
     cy="114.2"
     r="41.799999"
     id="circle111" /><path
     style="fill:#ffa121;fill-opacity:1"
     d="m 390.15,0 c -23.1,0 -41.8,18.7 -41.8,41.8 0,23.1 18.7,41.8 41.8,41.8 23.1,0 41.8,-18.7 41.8,-41.8 v 0 C 431.95,18.7 413.25,0 390.15,0 Z"
     id="path113"
     inkscape:connector-curvature="0" /><path
     style="fill:#ffa121;fill-opacity:1"
     d="m 159.35,145.8 c -23.1,0 -41.8,18.7 -41.8,41.8 0,23.1 18.7,41.8 41.8,41.8 23.1,0 41.8,-18.7 41.8,-41.8 0,-23 -18.7,-41.7 -41.8,-41.8 z"
     id="path115"
     inkscape:connector-curvature="0" /></g>
<g
   id="g127">
</g>
<g
   id="g129">
</g>
<g
   id="g131">
</g>
<g
   id="g133">
</g>
<g
   id="g135">
</g>
<g
   id="g137">
</g>
<g
   id="g139">
</g>
<g
   id="g141">
</g>
<g
   id="g143">
</g>
<g
   id="g145">
</g>
<g
   id="g147">
</g>
<g
   id="g149">
</g>
<g
   id="g151">
</g>
<g
   id="g153">
</g>
<g
   id="g155">
</g>
<ellipse
   ry="152.91614"
   rx="149.81927"
   cy="343.94656"
   cx="347.89465"
   id="path882"
   style="fill:#ffffff;fill-opacity:1;stroke:#ffa121;stroke-width:7.55906;stroke-miterlimit:4;stroke-dasharray:none;stroke-opacity:1" /><g
   id="g85"
   transform="matrix(2.4025844,0,0,2.4485634,231.27303,250.79889)"><path
     inkscape:connector-curvature="0"
     id="path10"
     fill="#4c4c4c"
     d="M 0,66.00125 H 21 L 22.5,48 2.99875,43.50125 Z" /><path
     inkscape:connector-curvature="0"
     id="path12"
     fill="#4c4c4c"
     d="M 3.75,40.5 22.5,45 27,29.25 11.25,21.00125 Z" /><path
     inkscape:connector-curvature="0"
     id="path14"
     fill="#4c4c4c"
     d="m 12.74875,18 15,8.25 L 39.75,18 28.5,5.25 Z" /><path
     inkscape:connector-curvature="0"
     id="path16"
     fill="#4c4c4c"
     d="M 96.748747,66.00125 H 75.749997 L 74.248747,48 93.749997,43.50125 Z" /><path
     inkscape:connector-curvature="0"
     id="path18"
     fill="#4c4c4c"
     d="m 92.998747,40.5 -18.75,4.5 -4.49875,-15.75 15.74875,-8.24875 z" /><path
     inkscape:connector-curvature="0"
     id="path20"
     fill="#4c4c4c"
     d="m 83.998747,18 -15,8.25 -11.99875,-8.25 11.25,-12.75 z" /><path
     inkscape:connector-curvature="0"
     id="path22"
     fill="#4c4c4c"
     d="m 32.25,3 11.249997,13.5 h 10.49875 L 63.749997,3 53.998747,0 h -10.7625 z" /><path
     inkscape:connector-curvature="0"
     id="path24"
     fill="#9c0000"
     d="M 0,66.00125 H 21 L 22.5,48 2.99875,43.50125 Z" /><path
     inkscape:connector-curvature="0"
     id="path26"
     fill="#b50808"
     d="M 3.75,40.5 22.5,45 27,29.25 11.25,21.00125 Z" /><path
     inkscape:connector-curvature="0"
     id="path28"
     fill="#c61818"
     d="m 12.74875,18 15,8.25 L 39.75,18 28.5,5.25 Z" /><path
     inkscape:connector-curvature="0"
     id="path30"
     fill="#9c0000"
     d="M 96.748747,66.00125 H 75.749997 L 74.248747,48 93.749997,43.50125 Z" /><path
     inkscape:connector-curvature="0"
     id="path32"
     fill="#b50808"
     d="m 92.998747,40.5 -18.75,4.5 -4.49875,-15.75 15.74875,-8.24875 z" /><path
     inkscape:connector-curvature="0"
     id="path34"
     fill="#c61818"
     d="m 83.998747,18 -15,8.25 -11.99875,-8.25 11.25,-12.75 z" /><path
     inkscape:connector-curvature="0"
     id="path36"
     fill="#ce3129"
     d="m 32.25,3 11.249997,13.5 h 10.49875 L 63.749997,3 53.998747,0 h -10.7625 z" /></g></svg>
